<svg width="25" height="24" viewBox="0 0 25 24" fill="none" xmlns="http://www.w3.org/2000/svg">
<path d="M12.2495 15.7431C12.7895 15.9646 13.3572 16.0754 13.9387 16.0754L13.9526 16.0892C14.5341 16.0892 15.1018 15.9785 15.6418 15.7569C16.1818 15.5354 16.6664 15.2169 17.0818 14.8015L19.851 12.0323C20.2664 11.6308 20.5849 11.1462 20.8064 10.6062C21.0279 10.0662 21.1387 9.49846 21.1387 8.91692C21.1387 8.33538 21.0279 7.76769 20.8064 7.22769C20.5849 6.68769 20.2664 6.20308 19.851 5.78769C19.4356 5.37231 18.951 5.05385 18.411 4.83231C17.3449 4.38923 16.1126 4.38923 15.0326 4.83231C14.4926 5.05385 14.0079 5.37231 13.5926 5.78769L12.2218 7.15846L13.2049 8.14154L14.5756 6.77077C14.8526 6.48 15.1849 6.25846 15.5587 6.10615C16.3064 5.80154 17.151 5.80154 17.8849 6.10615C18.2587 6.25846 18.591 6.48 18.8679 6.75692C19.1449 7.04769 19.3664 7.36615 19.5187 7.74C19.671 8.11385 19.7541 8.50154 19.7541 8.90308C19.7541 9.30462 19.671 9.69231 19.5187 10.0662C19.3664 10.44 19.1587 10.7585 18.8679 11.0492L16.0987 13.8185C15.8218 14.0954 15.4895 14.3169 15.1156 14.4692C14.3679 14.7738 13.5372 14.7738 12.7895 14.4692C12.4156 14.3169 12.0972 14.0954 11.8064 13.8046C11.5018 13.5138 11.2803 13.1677 11.1279 12.78C10.9756 12.3923 10.9064 11.9908 10.9341 11.5754V10.8831L9.54948 10.8415L9.52179 11.5338C9.4941 12.1431 9.60487 12.7246 9.82641 13.2923C10.0479 13.86 10.3803 14.3585 10.8095 14.7877C11.2249 15.1892 11.7095 15.5215 12.2495 15.7431Z" fill="currentColor"/>
<path d="M5.86636 19.5787C6.40636 19.8002 6.97406 19.911 7.55559 19.911V19.9249C8.13713 19.9249 8.70483 19.8141 9.24483 19.5925C9.78482 19.371 10.2694 19.0525 10.6848 18.6372L12.0556 17.2664L11.0725 16.2833L9.70175 17.6541C9.42483 17.9449 9.09252 18.1664 8.71867 18.3187C7.98483 18.6233 7.14021 18.6233 6.39252 18.3187C6.01867 18.1664 5.70021 17.9449 5.40944 17.6541C4.84175 17.0864 4.52329 16.311 4.52329 15.5079C4.52329 14.691 4.84175 13.9295 5.40944 13.3618L8.17867 10.5925C8.45559 10.3018 8.7879 10.0802 9.16175 9.92793C9.90944 9.62332 10.7541 9.62332 11.4879 9.92793C11.8617 10.0802 12.1802 10.3018 12.471 10.5925C12.7756 10.8833 12.9971 11.2295 13.1494 11.6172C13.3017 12.0049 13.371 12.4064 13.3433 12.8218V13.5141L14.7417 13.5556V12.8633C14.7694 12.2541 14.6587 11.6587 14.4371 11.1049C14.2156 10.5372 13.8833 10.0387 13.4541 9.60947C13.0387 9.19409 12.5541 8.87562 12.0141 8.65409C10.9479 8.21101 9.71559 8.21101 8.63559 8.65409C8.09559 8.87562 7.61098 9.19409 7.19559 9.60947L4.42636 12.3787C3.59559 13.2095 3.13867 14.3172 3.13867 15.4941C3.13867 16.671 3.59559 17.7787 4.44021 18.6233C4.84175 19.0387 5.32636 19.3572 5.86636 19.5787Z" fill="currentColor"/>
</svg>
