<svg width="176" height="60" viewBox="0 0 176 60" fill="none" xmlns="http://www.w3.org/2000/svg">
<path d="M80.6289 27.4022C81.0117 26.9824 81.3906 26.559 81.7658 26.1323C82.1582 25.7052 82.5455 25.2735 82.9278 24.8372C83.2755 24.4245 83.6208 24.0097 83.9636 23.5928C84.2543 23.2581 84.5406 22.9194 84.8224 22.577H89.2936C88.4294 23.5777 87.5536 24.5681 86.6665 25.5482C85.7672 26.5391 84.8406 27.5046 83.8878 28.4435C84.393 28.9007 84.9152 29.4509 85.4541 30.0944C85.9985 30.7278 86.5208 31.38 87.0201 32.0498C87.5117 32.707 87.9752 33.3849 88.4094 34.0817C88.8305 34.7588 89.1844 35.3768 89.4705 35.9357H85.1509C84.8498 35.4465 84.5382 34.9639 84.2163 34.4882C83.8754 33.9405 83.513 33.4067 83.1298 32.888C82.7452 32.3497 82.332 31.8325 81.8921 31.3388C81.471 30.8477 81.05 30.4328 80.6289 30.0944V35.9354H76.8652V16.8374L80.6289 16.2275V27.4022ZM102.59 35.4785C101.95 35.6645 101.125 35.834 100.114 35.9864C99.1037 36.1559 98.0426 36.2405 96.9311 36.2405C95.8029 36.2405 94.8596 36.0881 94.102 35.7833C93.3608 35.4785 92.7714 35.0552 92.3337 34.5134C91.8956 33.9548 91.5841 33.2945 91.3988 32.5325C91.2138 31.7705 91.121 30.9326 91.121 30.0182V22.577H94.885V29.561C94.885 30.7802 95.0449 31.6604 95.3648 32.2022C95.685 32.744 96.2827 33.0152 97.1585 33.0152C97.4279 33.0152 97.7141 33.0065 98.0173 32.9897C98.2872 32.96 98.5567 32.9261 98.8256 32.888V22.577H102.59V35.4785ZM114.636 29.1545C114.636 26.7167 113.744 25.4975 111.958 25.4975C111.571 25.4975 111.184 25.5485 110.796 25.6499C110.426 25.7516 110.123 25.8785 109.887 26.0309V32.9135C110.072 32.9474 110.308 32.981 110.594 33.0149C110.88 33.032 111.192 33.0404 111.529 33.0404C112.556 33.0404 113.331 32.6849 113.853 31.9739C114.375 31.2629 114.636 30.3227 114.636 29.1545ZM118.476 29.2565C118.476 30.323 118.316 31.2881 117.996 32.1515C117.693 33.0149 117.246 33.7514 116.657 34.361C116.067 34.9706 115.343 35.4446 114.484 35.783C113.626 36.1049 112.649 36.266 111.554 36.266C111.073 36.2647 110.593 36.2391 110.114 36.1895C109.624 36.1556 109.135 36.1049 108.649 36.0374C108.193 35.9722 107.738 35.896 107.285 35.8088C106.895 35.7197 106.507 35.618 106.123 35.504V16.8371L109.887 16.2275V22.8815C110.308 22.6955 110.746 22.5515 111.201 22.4498C111.655 22.3484 112.144 22.2974 112.666 22.2974C113.609 22.2974 114.442 22.4669 115.167 22.8056C115.891 23.1272 116.497 23.5928 116.985 24.2024C117.474 24.8117 117.844 25.5482 118.097 26.4119C118.349 27.2585 118.476 28.2068 118.476 29.2565ZM120.737 29.3579C120.737 28.1729 120.914 27.14 121.268 26.2595C121.638 25.3622 122.118 24.617 122.707 24.0245C123.282 23.4415 123.97 22.9834 124.728 22.6784C125.503 22.3736 126.294 22.2212 127.103 22.2212C128.989 22.2212 130.48 22.8053 131.574 23.9738C132.669 25.1252 133.216 26.8268 133.216 29.0786C133.216 29.2985 133.208 29.5442 133.191 29.8151C133.174 30.0689 133.157 30.2975 133.14 30.5006H124.602C124.686 31.2794 125.048 31.8974 125.688 32.3546C126.328 32.8118 127.187 33.0404 128.265 33.0404C128.955 33.0404 129.629 32.981 130.286 32.8625C130.959 32.7272 131.507 32.5664 131.928 32.3801L132.433 35.453C132.231 35.5547 131.961 35.6564 131.625 35.7578C131.252 35.8676 130.872 35.9525 130.488 36.0119C130.054 36.1013 129.615 36.169 129.174 36.215C128.703 36.266 128.231 36.2912 127.76 36.2912C126.564 36.2912 125.52 36.1133 124.627 35.7578C123.752 35.4023 123.019 34.9199 122.43 34.3103C121.857 33.6839 121.428 32.9474 121.141 32.1008C120.872 31.2542 120.737 30.3398 120.737 29.3579ZM129.579 27.9104C129.562 27.5905 129.503 27.2744 129.402 26.9705C129.32 26.671 129.174 26.3934 128.972 26.1578C128.787 25.9208 128.543 25.7261 128.24 25.5737C127.953 25.4213 127.591 25.3451 127.154 25.3451C126.733 25.3451 126.37 25.4213 126.067 25.5737C125.764 25.7093 125.511 25.8953 125.309 26.1323C125.107 26.3693 124.947 26.6489 124.829 26.9705C124.728 27.277 124.652 27.5914 124.602 27.9104H129.579Z" fill="#253391"/>
<path d="M76.7764 46.6906V39.2719H81.7596V40.6744H78.4376V42.1303H81.3869V43.5004H78.4376V45.2884H82.0046V46.6906H76.7764ZM88.7362 46.6906C88.4365 46.0504 88.149 45.4045 87.8738 44.7532C87.5943 44.0934 87.3246 43.4296 87.0646 42.7618C86.8205 42.1362 86.5827 41.5082 86.3511 40.8778C86.161 40.3444 85.9764 39.8091 85.7973 39.2719H87.6289C87.7709 39.7 87.9234 40.1641 88.0866 40.6636L88.5978 42.1408C88.7676 42.6121 88.938 43.0832 89.1089 43.5541C89.2501 43.9474 89.4027 44.3365 89.5667 44.7208C89.7015 44.3926 89.8507 44.0038 90.014 43.5541C90.1912 43.0855 90.3616 42.6144 90.5251 42.1408C90.7019 41.6507 90.8723 41.1582 91.0363 40.6636C91.1944 40.2003 91.3505 39.7364 91.5048 39.2719H93.2725C93.0863 39.8079 92.8981 40.3432 92.7079 40.8778C92.4832 41.5093 92.2489 42.1374 92.0052 42.7618C91.7452 43.4296 91.4754 44.0934 91.1959 44.7532C90.9208 45.4045 90.6333 46.0504 90.3335 46.6906H88.7362ZM97.4217 46.6906V39.2719H102.405V40.6744H99.0829V42.1303H102.033V43.5004H99.0829V45.2884H102.65V46.6906H97.4217ZM112.025 46.6906C111.544 45.8318 111.029 44.9926 110.481 44.1751C109.937 43.3601 109.347 42.5773 108.714 41.8306V46.6906H107.074V39.2719H108.426C108.698 39.5492 108.957 39.8386 109.203 40.1392C109.501 40.4988 109.788 40.8664 110.066 41.2417C110.371 41.6369 110.666 42.0402 110.95 42.4513C111.241 42.8653 111.514 43.2649 111.77 43.6504V39.2719H113.42V46.6906H112.025ZM123.79 39.2719V40.6957H121.565V46.6906H119.903V40.6957H117.678V39.2719H123.79ZM130.065 45.4168C130.299 45.4168 130.49 45.3988 130.64 45.3634C130.796 45.3205 130.92 45.2668 131.012 45.2026C131.104 45.1312 131.168 45.0493 131.204 44.9566C131.239 44.8636 131.257 44.7601 131.257 44.6461C131.257 44.4034 131.144 44.2036 130.916 44.0464C130.689 43.8823 130.299 43.7074 129.745 43.522C129.5 43.4348 129.259 43.3384 129.021 43.2328C128.787 43.1234 128.568 42.9831 128.371 42.8155C128.179 42.643 128.02 42.4361 127.903 42.2053C127.782 41.9626 127.722 41.6698 127.722 41.3272C127.722 40.9849 127.786 40.678 127.914 40.4068C128.038 40.1324 128.224 39.8906 128.457 39.7C128.691 39.5074 128.975 39.361 129.309 39.2611C129.642 39.1543 130.018 39.1006 130.437 39.1006C130.934 39.1006 131.364 39.1543 131.726 39.2611C132.088 39.3682 132.386 39.4861 132.62 39.6145L132.141 40.9312C131.919 40.8176 131.687 40.7244 131.449 40.6528C131.2 40.5673 130.899 40.5244 130.544 40.5244C130.146 40.5244 129.859 40.5814 129.681 40.6957C129.511 40.8028 129.426 40.9705 129.426 41.1988C129.426 41.3344 129.458 41.4487 129.521 41.5414C129.585 41.6341 129.674 41.7199 129.788 41.7985C129.908 41.8696 130.043 41.9374 130.192 42.0019C130.349 42.0589 130.519 42.1195 130.703 42.1837C131.087 42.3265 131.42 42.4693 131.705 42.6121C131.988 42.7477 132.223 42.9082 132.407 43.0936C132.597 43.276 132.742 43.4993 132.833 43.7467C132.925 43.9966 132.972 44.2999 132.972 44.6566C132.972 45.349 132.73 45.8878 132.247 46.2733C131.765 46.6516 131.037 46.8406 130.065 46.8406C129.769 46.8429 129.473 46.8214 129.181 46.7764C128.944 46.7457 128.709 46.6992 128.478 46.6372C128.3 46.5876 128.126 46.5267 127.956 46.4551C127.833 46.4002 127.712 46.3396 127.594 46.2733L128.063 44.9458C128.283 45.067 128.553 45.1777 128.872 45.2776C129.199 45.3703 129.596 45.4168 130.065 45.4168Z" fill="#4D7CF4"/>
<path d="M63.877 16.251C63.877 16.251 65.5387 18.7341 65.7049 20.2428C65.8712 21.7518 65.7049 22.6452 65.7049 22.6452" stroke="#7DA0F7" stroke-width="1.82524"/>
<path d="M60.3493 11.8939L61.5957 11.0662C61.6682 11.0181 61.7494 10.9848 61.8347 10.9682C61.92 10.9516 62.0077 10.952 62.0928 10.9695C62.178 10.987 62.2588 11.0212 62.3308 11.0701C62.4028 11.119 62.4645 11.1817 62.5124 11.2546L65.4701 15.757C65.518 15.8299 65.5511 15.9116 65.5676 15.9974C65.5841 16.0831 65.5836 16.1713 65.5661 16.2569C65.5487 16.3425 65.5147 16.4238 65.466 16.4961C65.4173 16.5685 65.3549 16.6305 65.2824 16.6786L64.0363 17.506C63.9638 17.5542 63.8826 17.5875 63.7973 17.6041C63.712 17.6207 63.6243 17.6202 63.5391 17.6027C63.454 17.5852 63.3732 17.551 63.3012 17.5021C63.2292 17.4532 63.1675 17.3905 63.1196 17.3176L60.1622 12.8149C60.0655 12.6678 60.031 12.488 60.0661 12.3153C60.1013 12.1425 60.2032 11.9908 60.3496 11.8936L60.3493 11.8939Z" fill="#0A349F"/>
<path d="M42.8447 22.1353H71.6907L69.5697 28.6225H44.9657L42.8447 22.1353Z" fill="#1D59F1"/>
<path d="M42.8447 19.083H71.6907V22.1358H42.8447V19.083ZM45.8812 44.6493H69.034V47.7021H45.8812V44.6493Z" fill="#4D7CF4"/>
<path d="M49.6765 41.2139H65.238L69.0337 44.648H45.8809L49.6765 41.2139Z" fill="#7DA0F7"/>
<path d="M47.6673 24.8066H66.8681L64.9482 43.1453H49.5875L47.6673 24.8066Z" fill="#4D7CF4"/>
<path fill-rule="evenodd" clip-rule="evenodd" d="M57.4219 27.2202C57.329 27.2268 57.2423 27.2697 57.1805 27.3399C57.1188 27.41 57.0868 27.5017 57.0916 27.5952V27.6906C57.1006 27.7986 57.117 27.9057 57.1382 28.0116C57.1692 28.2144 57.1802 28.4199 57.1713 28.6251C57.152 28.6927 57.1139 28.7534 57.0615 28.8L57.054 28.9431C56.8498 28.9602 56.6469 28.9917 56.4471 29.0373C55.6066 29.2278 54.8419 29.6666 54.2514 30.2973L54.1303 30.2112C54.0974 30.2212 54.0628 30.2245 54.0286 30.221C53.9944 30.2175 53.9612 30.2072 53.931 30.1908C53.7673 30.069 53.6158 29.9315 53.4786 29.7801C53.4097 29.6973 53.3362 29.6186 53.2584 29.5443L53.1838 29.4843C53.1172 29.4307 53.0354 29.3997 52.9501 29.3958C52.8469 29.3904 52.7472 29.4348 52.6822 29.5155C52.6276 29.5927 52.6057 29.6885 52.6212 29.7819C52.6368 29.8753 52.6885 29.9587 52.7651 30.0138L52.8346 30.0696C52.9242 30.1296 53.0173 30.1842 53.113 30.2334C53.2929 30.3334 53.4617 30.4524 53.6164 30.5883C53.6564 30.6456 53.6797 30.7131 53.6833 30.7833L53.7934 30.8844C53.1999 31.7801 52.9561 32.8645 53.1086 33.9297L52.9671 33.9705C52.9305 34.0293 52.8813 34.0792 52.823 34.1163C52.6261 34.1694 52.4243 34.2027 52.2208 34.2162C52.1128 34.2185 52.005 34.227 51.898 34.2417L51.8087 34.2618H51.7986C51.7366 34.2704 51.6782 34.2961 51.6298 34.3361C51.5815 34.3762 51.5452 34.4289 51.525 34.4884C51.5047 34.548 51.5014 34.612 51.5152 34.6734C51.5291 34.7348 51.5596 34.7911 51.6034 34.836C51.6936 34.9272 51.8272 34.9596 51.9484 34.9197H51.955L52.046 34.9095C52.1485 34.8787 52.2492 34.8417 52.3474 34.7988C52.5367 34.7225 52.733 34.6648 52.9334 34.6266C53.0029 34.6305 53.0695 34.6545 53.1262 34.695L53.2775 34.6695C53.6051 35.6921 54.294 36.5585 55.2141 37.1049L55.1526 37.2342C55.1807 37.2936 55.1914 37.3596 55.1827 37.425C55.0994 37.6189 54.9976 37.8043 54.8787 37.9785C54.8134 38.0651 54.7531 38.1553 54.6981 38.2488L54.6552 38.34C54.6242 38.3943 54.6088 38.4561 54.6105 38.5186C54.6122 38.5812 54.6311 38.642 54.665 38.6945C54.6989 38.7469 54.7465 38.789 54.8026 38.816C54.8588 38.843 54.9212 38.854 54.9831 38.8476C55.1096 38.8332 55.2177 38.7486 55.2621 38.6286L55.3039 38.5425C55.342 38.4414 55.3743 38.3381 55.4006 38.2332C55.428 38.1651 55.4516 38.0952 55.4749 38.0271C55.5268 37.8741 55.576 37.7286 55.6605 37.6266C55.7004 37.589 55.7506 37.5643 55.8046 37.5558L55.8804 37.4172C56.8775 37.8026 57.9809 37.8054 58.9799 37.425L59.047 37.554C59.1156 37.5645 59.1773 37.602 59.2186 37.6581C59.3135 37.8396 59.3902 38.0298 59.4484 38.226C59.4752 38.331 59.508 38.4345 59.5462 38.5359L59.588 38.622C59.61 38.6807 59.6477 38.7322 59.697 38.7707C59.7463 38.8092 59.8052 38.8332 59.8672 38.84C59.9292 38.8469 59.9919 38.8364 60.0484 38.8096C60.1048 38.7828 60.1528 38.7408 60.1869 38.6883C60.2208 38.6357 60.2395 38.5746 60.2409 38.5119C60.2423 38.4491 60.2264 38.3873 60.195 38.3331L60.1511 38.2416C60.0961 38.1485 60.0358 38.0587 59.9706 37.9725C59.8546 37.8029 59.7534 37.6235 59.668 37.4364C59.6599 37.402 59.6588 37.3663 59.6647 37.3315C59.6706 37.2967 59.6834 37.2634 59.7023 37.2336C59.6807 37.1895 59.662 37.144 59.6462 37.0974C60.5644 36.5469 61.2503 35.6775 61.5745 34.6533L61.7177 34.6788C61.7689 34.6318 61.8363 34.6066 61.9057 34.6086C62.1056 34.6473 62.302 34.71 62.4917 34.7811C62.5902 34.8267 62.6911 34.8651 62.7931 34.8978C62.8065 34.9014 62.8233 34.9047 62.8403 34.908L62.88 34.9164H62.8865C62.9461 34.9358 63.0098 34.9382 63.0706 34.9233C63.1314 34.9085 63.1869 34.8769 63.2309 34.8322C63.2749 34.7874 63.3057 34.7313 63.3198 34.67C63.3339 34.6087 63.3308 34.5446 63.3108 34.485C63.2905 34.4254 63.254 34.3727 63.2055 34.3327C63.157 34.2928 63.0984 34.2672 63.0363 34.2588L62.9384 34.2354C62.8315 34.2208 62.7238 34.2124 62.6159 34.2102C62.4124 34.1971 62.2106 34.1636 62.0137 34.1103C61.9528 34.076 61.9025 34.0254 61.8684 33.9642L61.732 33.9237C61.8773 32.8588 61.6286 31.7774 61.0332 30.8847L61.1522 30.7743C61.1474 30.7047 61.1699 30.636 61.2149 30.5829C61.3695 30.4488 61.5375 30.3309 61.7141 30.2298C61.8096 30.1806 61.9027 30.126 61.9925 30.066L62.0659 30.006C62.1067 29.9808 62.1416 29.9473 62.1685 29.9075C62.1953 29.8677 62.2135 29.8227 62.2217 29.7753C62.23 29.728 62.2282 29.6794 62.2164 29.6329C62.2046 29.5863 62.1831 29.5427 62.1533 29.5051C62.1235 29.4675 62.0861 29.4367 62.0436 29.4147C62.0011 29.3927 61.9544 29.3801 61.9067 29.3776C61.8589 29.3751 61.8112 29.3828 61.7666 29.4002C61.7221 29.4176 61.6817 29.4443 61.6482 29.4786L61.5736 29.5383C61.4954 29.6124 61.422 29.6913 61.3527 29.7741C61.2197 29.9271 61.0723 30.0666 60.9126 30.1911C60.8481 30.2176 60.7775 30.2254 60.7088 30.2136L60.5814 30.3048C59.8446 29.5286 58.8527 29.0477 57.7899 28.9512C57.7899 28.9152 57.7866 28.8672 57.7842 28.8333C57.7834 28.8223 57.7827 28.8113 57.7821 28.8003C57.7251 28.7609 57.6856 28.7006 57.6723 28.6323C57.6652 28.4276 57.678 28.2226 57.7105 28.0203C57.7323 27.9138 57.7475 27.8073 57.757 27.6993V27.5979C57.762 27.5043 57.7302 27.4124 57.6684 27.3422C57.6066 27.272 57.5198 27.229 57.4267 27.2226L57.4219 27.2202ZM57.0018 29.8395L56.9009 31.6107H56.8932C56.8901 31.6643 56.8731 31.7162 56.8437 31.7611C56.8144 31.8059 56.7738 31.8422 56.7261 31.8663C56.6782 31.891 56.6243 31.9015 56.5707 31.8967C56.5171 31.8918 56.466 31.8719 56.4232 31.839L54.9783 30.8097C55.4383 30.3555 56.0153 30.0395 56.6443 29.8974C56.7621 29.8721 56.8811 29.8528 57.0009 29.8395H57.0018ZM59.8551 30.8151C59.3086 30.2772 58.6016 29.9344 57.8427 29.8395L57.9426 31.6086C57.9436 31.6643 57.9599 31.7186 57.9899 31.7653C58.0199 31.8121 58.0623 31.8496 58.1123 31.8734C58.1624 31.8972 58.218 31.9065 58.2731 31.9003C58.3281 31.894 58.3802 31.8723 58.4237 31.8378L59.8551 30.8148V30.8151ZM54.4538 31.476C54.0517 32.1343 53.879 32.9084 53.9629 33.6762L55.6587 33.1857V33.1806C55.7102 33.1662 55.7569 33.1381 55.7939 33.0993C55.8308 33.0604 55.8566 33.0122 55.8686 32.9597C55.8805 32.9073 55.8781 32.8526 55.8616 32.8015C55.8452 32.7503 55.8153 32.7046 55.7751 32.6691V32.6616L54.4538 31.476ZM60.8866 33.6699C60.9602 32.9027 60.7827 32.1323 60.3812 31.4757L60.3832 31.4796L59.0718 32.6598C59.0316 32.6954 59.0018 32.7412 58.9853 32.7924C58.9688 32.8436 58.9663 32.8983 58.9781 32.9508C59.002 33.0576 59.0825 33.1425 59.1885 33.1713V33.1779L60.8866 33.6699ZM57.1513 32.7534H57.692L58.0223 33.1752L57.9024 33.7026L57.4166 33.9375L56.9299 33.7026L56.8153 33.1752L57.1513 32.7534ZM58.9512 34.1925C58.9286 34.19 58.9058 34.19 58.8832 34.1925L58.8811 34.2C58.8335 34.2028 58.7872 34.217 58.7463 34.2415C58.7053 34.266 58.6707 34.3001 58.6456 34.3408C58.6204 34.3816 58.6054 34.4278 58.6017 34.4756C58.598 34.5234 58.6058 34.5714 58.6245 34.6155L59.3004 36.2604C59.95 35.8431 60.4477 35.2194 60.6998 34.4892L58.9512 34.1925ZM55.9463 34.2C55.995 34.2008 56.0428 34.2136 56.0854 34.2373C56.128 34.261 56.1642 34.2949 56.1907 34.3359C56.2444 34.419 56.2534 34.5237 56.2143 34.6149V34.6215L55.5426 36.2532C54.8997 35.8387 54.4107 35.2226 54.1515 34.5003L55.8852 34.2045C55.9045 34.2025 55.924 34.2025 55.9434 34.2045L55.9463 34.2ZM57.6818 35.0661C57.6555 35.0175 57.6163 34.9771 57.5685 34.9496C57.5207 34.922 57.4662 34.9084 57.4112 34.9101L57.4157 34.9197C57.3644 34.9207 57.3142 34.9349 57.2701 34.9611C57.2259 34.9873 57.1892 35.0245 57.1635 35.0691L56.3059 36.6192C56.9167 36.8283 57.5729 36.8622 58.2014 36.7176L58.543 36.6162L57.6884 35.0661H57.6818Z" fill="white"/>
<path d="M57.0917 27.5948H57.1335L57.1332 27.5927L57.0917 27.5948ZM57.4223 27.2198L57.4423 27.1832L57.4316 27.1772L57.4193 27.1781L57.4223 27.2198ZM57.0917 27.6902H57.0502L57.0505 27.6938L57.0917 27.6902ZM57.1383 28.0112L57.1791 28.0049L57.1788 28.0028L57.1383 28.0112ZM57.1714 28.6247L57.2114 28.6361L57.2126 28.6313V28.6265L57.1714 28.6247ZM57.0616 28.7996L57.0341 28.7684L57.0213 28.7801L57.0204 28.7975L57.0616 28.7996ZM57.0541 28.9427L57.0574 28.9841L57.0932 28.9811L57.0953 28.9448L57.0541 28.9427ZM54.2515 30.2969L54.2277 30.3308L54.2569 30.3518L54.2814 30.3254L54.2515 30.2969ZM54.1304 30.2108L54.1543 30.1769L54.1378 30.1649L54.1184 30.1709L54.1304 30.2108ZM53.9311 30.1904L53.9066 30.2237L53.909 30.2258L53.9117 30.227L53.9311 30.1904ZM53.4787 29.78L53.447 29.807L53.4482 29.8079L53.4787 29.78ZM53.2585 29.5442L53.2868 29.5142L53.2841 29.5118L53.2585 29.5442ZM53.1839 29.4842L53.1579 29.5169L53.1836 29.4845L53.1839 29.4842ZM52.6823 29.5154L52.6503 29.489L52.6488 29.4911L52.6823 29.5154ZM52.7652 30.0137L52.7909 29.9813L52.7894 29.9801L52.7652 30.0137ZM52.8347 30.0695L52.8088 30.1022L52.8118 30.1043L52.8347 30.0695ZM53.1131 30.2333L53.1331 30.197L53.1319 30.1964L53.1131 30.2333ZM53.6165 30.5882L53.6503 30.5642L53.6473 30.5603L53.6437 30.557L53.6165 30.5882ZM53.6834 30.7832L53.6422 30.7853L53.6431 30.8021L53.6556 30.8135L53.6834 30.7832ZM53.7935 30.8843L53.8278 30.9074L53.8475 30.8777L53.8215 30.8537L53.7935 30.8843ZM53.1087 33.9296L53.12 33.9698L53.1546 33.9596L53.1495 33.9236L53.1087 33.9296ZM52.9672 33.9704L52.9559 33.9302L52.941 33.9347L52.9323 33.9482L52.9672 33.9704ZM52.8231 34.1162L52.8338 34.1564L52.8398 34.1549L52.8452 34.1516L52.8231 34.1162ZM52.2209 34.2161L52.2218 34.2578H52.2236L52.2209 34.2161ZM51.8981 34.2416L51.8924 34.2002L51.8891 34.2011L51.8981 34.2416ZM51.8088 34.2617V34.3034H51.8136L51.8181 34.3022L51.8088 34.2617ZM51.7987 34.2617V34.22H51.7957L51.793 34.2203L51.799 34.2614L51.7987 34.2617ZM51.9485 34.9196V34.8776H51.9419L51.936 34.88L51.9485 34.9196ZM51.9551 34.9196V34.961H51.9598L51.9551 34.9196ZM52.0461 34.9094L52.0505 34.9505H52.0541L52.0577 34.9493L52.0461 34.9094ZM52.3474 34.7987L52.3322 34.76L52.331 34.7606L52.3474 34.7987ZM52.9335 34.6265L52.9359 34.5848H52.9308L52.9257 34.5854L52.9335 34.6265ZM53.1263 34.6949L53.1024 34.7285L53.1161 34.7387L53.1328 34.7357L53.1263 34.6949ZM53.2776 34.6694L53.3169 34.6568L53.3059 34.6226L53.2707 34.6286L53.2776 34.6694ZM55.2142 37.1048L55.2515 37.1228L55.2679 37.0883L55.2351 37.0691L55.2142 37.1048ZM55.1527 37.2341L55.1154 37.2161L55.1067 37.2341L55.1154 37.2521L55.1527 37.2341ZM55.1828 37.4249L55.2207 37.4414L55.2231 37.436L55.224 37.43L55.1828 37.4249ZM54.8788 37.9784L54.9116 38.0036L54.9128 38.0021L54.8788 37.9784ZM54.6982 38.2487L54.6624 38.2274L54.6609 38.231L54.6982 38.2487ZM54.6553 38.3399L54.6911 38.3609L54.6929 38.3576L54.6553 38.3399ZM55.2622 38.6285L55.2246 38.6102L55.2234 38.6141L55.2622 38.6285ZM55.304 38.5424L55.3413 38.5607L55.3425 38.5571L55.3037 38.5424H55.304ZM55.4007 38.2331L55.3625 38.2175L55.3613 38.2199L55.3607 38.2229L55.4007 38.2331ZM55.6606 37.6265L55.6322 37.5965L55.6304 37.598L55.6286 37.5998L55.6606 37.6265ZM55.8047 37.5557L55.8113 37.5965L55.8313 37.5935L55.8411 37.5755L55.8047 37.5557ZM55.8805 37.4171L55.8954 37.3781L55.8617 37.3652L55.8441 37.3973L55.8805 37.4171ZM58.98 37.4249L59.0167 37.4057L58.9997 37.3727L58.9653 37.3859L58.98 37.4249ZM59.0471 37.5539L59.0104 37.5734L59.0203 37.592L59.0411 37.595L59.0471 37.5539ZM59.2187 37.658L59.2554 37.6388L59.2536 37.6358L59.2518 37.6331L59.2187 37.658ZM59.4485 38.2259L59.4887 38.2157L59.4881 38.2139L59.4485 38.2259ZM59.5463 38.5358L59.5075 38.5505L59.5093 38.5538L59.5463 38.5358ZM59.5881 38.6219L59.6269 38.6072L59.6254 38.6036L59.5881 38.6219ZM60.1951 38.333L60.1578 38.351L60.1592 38.3537L60.1951 38.333ZM60.1512 38.2415L60.1885 38.2235L60.1867 38.2205L60.1512 38.2415ZM59.9707 37.9724L59.9366 37.9961L59.9378 37.9976L59.9707 37.9724ZM59.6681 37.4363L59.6278 37.4459L59.6287 37.4501L59.6305 37.454L59.6681 37.4363ZM59.7024 37.2335L59.737 37.256L59.7495 37.2362L59.7394 37.2152L59.7024 37.2335ZM59.6463 37.0973L59.6254 37.0613L59.5965 37.0787L59.6072 37.1105L59.6463 37.0973ZM61.5746 34.6532L61.5814 34.6124L61.5459 34.6061L61.5349 34.6406L61.5746 34.6532ZM61.7178 34.6787L61.7103 34.7195L61.7306 34.7231L61.7455 34.7093L61.7178 34.6787ZM61.9058 34.6085L61.9135 34.5677L61.9106 34.5671H61.907L61.9058 34.6085ZM62.4918 34.781L62.5091 34.7432L62.5062 34.742L62.4918 34.781ZM62.7932 34.8977L62.781 34.9373L62.7825 34.9379L62.7932 34.8977ZM62.8801 34.9163L62.8705 34.9568L62.8753 34.958H62.8801V34.9163ZM62.8866 34.9163L62.8994 34.8767L62.8935 34.8749H62.8866V34.9163ZM63.0364 34.2587L63.0269 34.2995L63.031 34.3001L63.0364 34.2587ZM62.9385 34.2353L62.9481 34.1948L62.9442 34.1942L62.9385 34.2356V34.2353ZM62.616 34.2101L62.613 34.2515H62.6151L62.616 34.2101ZM62.0138 34.1102L61.9935 34.1465L61.998 34.1489L62.0031 34.1504L62.0138 34.1102ZM61.8685 33.9641L61.9043 33.9437L61.8962 33.929L61.8801 33.9242L61.8685 33.9641ZM61.7321 33.9236L61.6912 33.9179L61.6865 33.9533L61.7205 33.9635L61.7321 33.9236ZM61.0333 30.8846L61.0052 30.8546L60.9792 30.8786L60.9989 30.908L61.0333 30.8846ZM61.1523 30.7742L61.1804 30.8048L61.195 30.7913L61.1935 30.7712L61.1523 30.7742ZM61.215 30.5828L61.1881 30.551L61.1851 30.5534L61.1834 30.5558L61.2147 30.5828H61.215ZM61.7142 30.2297L61.6954 30.1928L61.6936 30.1937L61.7142 30.2297ZM61.9926 30.0659L62.0156 30.1007L62.0186 30.0983L61.9926 30.0659ZM62.066 30.0059L62.0442 29.9708L62.0421 29.9723L62.0401 29.9738L62.066 30.0059ZM61.648 29.4785L61.6739 29.5109L61.6757 29.5094L61.6775 29.5076L61.648 29.4785ZM61.5734 29.5382L61.5474 29.5055L61.545 29.5079L61.5734 29.5382ZM61.3528 29.774L61.3842 29.8013L61.3848 29.8007L61.3528 29.774ZM60.9127 30.191L60.9282 30.23L60.9336 30.2276L60.9381 30.224L60.9127 30.191ZM60.7089 30.2135L60.7161 30.1727L60.699 30.1697L60.685 30.1796L60.7089 30.2135ZM60.5815 30.3047L60.5516 30.3335L60.5761 30.3596L60.6054 30.3386L60.5815 30.3047ZM57.79 28.9511H57.7485V28.9889L57.7861 28.9925L57.79 28.9511ZM57.7822 28.8002L57.8237 28.7987L57.8228 28.7777L57.8058 28.7663L57.7822 28.8002ZM57.6724 28.6322L57.6309 28.6334V28.6367L57.6318 28.6397L57.6724 28.6322ZM57.7106 28.0202L57.67 28.0118V28.0133L57.7106 28.0202ZM57.7571 27.6992L57.7983 27.7028V27.6992H57.7571ZM57.7571 27.5978L57.7157 27.5954V27.5978H57.7571ZM57.4268 27.2225L57.4065 27.2588L57.4146 27.2633L57.4238 27.2639L57.4268 27.2225ZM56.901 31.6106V31.6523H56.9398L56.9422 31.6133L56.901 31.6106ZM57.0019 29.8394L57.0431 29.8418L57.0457 29.798H57.0019V29.8394ZM56.8933 31.6106V31.5692H56.8539L56.8521 31.6088L56.8933 31.6106ZM56.4233 31.8389L56.4478 31.8053L56.4472 31.805L56.4233 31.8389ZM54.9784 30.8096L54.9495 30.7796L54.914 30.8147L54.9546 30.8435L54.9784 30.8096ZM57.001 29.8394V29.798H56.9962L57.001 29.8394ZM57.8428 29.8394L57.8478 29.798L57.7986 29.792L57.8016 29.8418L57.8428 29.8394ZM59.8552 30.815L59.879 30.8489L59.9196 30.8201L59.8841 30.7853L59.8552 30.815ZM57.9424 31.6085L57.9842 31.6079V31.6061L57.9424 31.6085ZM58.4238 31.8377L58.3999 31.8038L58.3981 31.8053L58.4238 31.8377ZM54.4538 31.4759L54.4246 31.4465L54.3936 31.4774L54.4264 31.5068L54.4538 31.4759ZM53.963 33.6761L53.9221 33.6806L53.9275 33.7295L53.9746 33.716L53.963 33.6761ZM55.6588 33.1856L55.6701 33.2258L55.7 33.2168V33.1856H55.6588ZM55.6588 33.1805L55.6477 33.1406L55.6173 33.149V33.1805H55.6588ZM55.7752 32.669H55.734V32.6879L55.748 32.7002L55.7752 32.669ZM55.7752 32.6615H55.8166V32.6426L55.8029 32.6306L55.7752 32.6615ZM54.4544 31.4753L54.4897 31.4972L54.4252 31.4462L54.4544 31.4753ZM60.3813 31.4756L60.4165 31.4537L60.3443 31.4942L60.3813 31.4756ZM60.8867 33.6698L60.8751 33.7097L60.9228 33.7235L60.9276 33.6737L60.8867 33.6698ZM60.3833 31.4798L60.4108 31.5107L60.4344 31.4897L60.4203 31.4609L60.3833 31.4798ZM59.0719 32.6597L59.0993 32.6909V32.69L59.0719 32.6591V32.6597ZM59.1886 33.1712H59.2297V33.1394L59.1993 33.131L59.1886 33.1712ZM59.1886 33.1778H59.1468V33.209L59.1769 33.218L59.1886 33.1778ZM57.6921 32.7533L57.7246 32.7275L57.7121 32.7116H57.6921V32.7533ZM57.1514 32.7533V32.7116H57.1317L57.1192 32.7275L57.1514 32.7533ZM58.0227 33.1751L58.0627 33.1844L58.0672 33.1652L58.0549 33.1496L58.0224 33.1751H58.0227ZM57.9025 33.7025L57.9204 33.74L57.9383 33.7313L57.9427 33.7118L57.9025 33.7025ZM57.4167 33.9374L57.3988 33.9749L57.4167 33.9836L57.4346 33.9746L57.4167 33.9374ZM56.93 33.7025L56.8897 33.7115L56.8939 33.7313L56.9121 33.7403L56.93 33.7025ZM56.8154 33.1751L56.7832 33.1493L56.7709 33.1646L56.7751 33.1841L56.8154 33.1751ZM58.8833 34.1921L58.8788 34.151L58.8505 34.154L58.8433 34.1816L58.8833 34.1921ZM58.9513 34.1921L58.9582 34.151H58.9573L58.9513 34.1921ZM58.8812 34.1999L58.8836 34.2416L58.9134 34.2398L58.9212 34.2107L58.8812 34.1999ZM58.6246 34.6154L58.6628 34.5995V34.5989L58.6246 34.6154ZM59.3005 36.2603L59.2623 36.2762L59.2811 36.3221L59.3228 36.2951L59.3005 36.2603ZM60.6999 34.4891L60.739 34.5026L60.7551 34.4561L60.7068 34.448L60.6999 34.4891ZM55.9464 34.1999L55.9473 34.1585L55.9247 34.1579L55.9121 34.1768L55.9464 34.1999ZM56.2144 34.6148L56.1765 34.5983L56.1732 34.6061V34.6148H56.2144ZM56.2144 34.6214L56.2526 34.6373L56.2556 34.6295V34.6214H56.2144ZM55.5427 36.2531L55.5203 36.2882L55.5621 36.3149L55.5809 36.269L55.5427 36.2531ZM54.1516 34.5002L54.1447 34.4591L54.0958 34.4675L54.1128 34.5143L54.1516 34.5002ZM55.8853 34.2044L55.8808 34.163L55.8781 34.1636L55.8853 34.2044ZM55.9435 34.2044L55.9393 34.2458L55.964 34.2485L55.9781 34.2275L55.9435 34.2044ZM57.4113 34.9097L57.4098 34.8683L57.3468 34.8704L57.3737 34.9274L57.4113 34.9097ZM57.6819 35.066L57.6455 35.0858L57.6575 35.1077H57.6819V35.066ZM57.4158 34.9196L57.4167 34.961L57.4802 34.9595L57.4531 34.9016L57.4158 34.9196ZM57.1636 35.069L57.1278 35.0483L57.1272 35.0489L57.1636 35.069ZM56.306 36.6191L56.2702 36.599L56.2457 36.6425L56.2929 36.6584L56.306 36.6191ZM58.2014 36.7175L58.2107 36.758L58.2131 36.7574L58.2014 36.7175ZM58.5431 36.6161L58.5548 36.656L58.604 36.6413L58.5792 36.596L58.5431 36.6161ZM57.6885 35.066L57.7246 35.0459L57.7127 35.0243H57.6888L57.6885 35.066ZM57.1332 27.5927C57.1289 27.5101 57.1571 27.4293 57.2117 27.3673C57.2663 27.3053 57.3429 27.2673 57.425 27.2615L57.419 27.1784C57.3153 27.1858 57.2185 27.2338 57.1496 27.3121C57.0807 27.3904 57.0451 27.4928 57.0505 27.5972L57.1332 27.5927ZM57.1332 27.6905V27.5951H57.0505V27.6905H57.1332ZM57.1788 28.0034C57.1576 27.8989 57.1422 27.7932 57.1329 27.6869L57.0505 27.6938C57.0598 27.8036 57.0762 27.9125 57.0977 28.0196L57.1788 28.0034ZM57.2129 28.6268C57.2218 28.419 57.2105 28.2105 57.1791 28.0049L57.0974 28.0178C57.1278 28.2179 57.1391 28.4207 57.1302 28.6232L57.2129 28.6268ZM57.089 28.8308C57.1474 28.7791 57.1898 28.7113 57.2114 28.6361L57.1317 28.6136C57.1147 28.6733 57.081 28.7273 57.0341 28.7684L57.089 28.8308ZM57.0953 28.9448L57.1027 28.802L57.0204 28.7975L57.0126 28.9406L57.0953 28.9448ZM56.4567 29.0777C56.6545 29.0326 56.8552 29.0011 57.0574 28.9841L57.0505 28.9016C56.8445 28.919 56.6399 28.9507 56.4382 28.9967L56.4567 29.0777ZM54.2814 30.3254C54.8662 29.7002 55.6245 29.2667 56.4567 29.0777L56.4382 28.9967C55.5895 29.1889 54.8174 29.6319 54.2211 30.2687L54.2814 30.3254ZM54.1065 30.2447L54.2274 30.3311L54.2751 30.2633L54.1543 30.1772L54.1065 30.2447ZM53.9117 30.2273C53.9821 30.2654 54.065 30.2744 54.1423 30.2507L54.1184 30.1709C54.0908 30.1793 54.0617 30.1824 54.0329 30.1795C54.0041 30.1766 53.9762 30.168 53.9507 30.1541L53.9117 30.2273ZM53.4482 29.8079C53.5873 29.9615 53.7407 30.1007 53.9066 30.2243L53.9558 30.1574C53.7942 30.0373 53.6447 29.9016 53.5094 29.7521L53.4482 29.8079ZM53.2298 29.5745C53.3065 29.6477 53.379 29.7254 53.447 29.807L53.5103 29.7533C53.4403 29.6694 53.3659 29.5896 53.2868 29.5142L53.2298 29.5745ZM53.1579 29.5169L53.2328 29.5769L53.2841 29.5118L53.2095 29.4518L53.1579 29.5169ZM52.9481 29.4371C53.0248 29.441 53.0982 29.4686 53.1579 29.5169L53.2095 29.4521C53.1362 29.393 53.0462 29.3588 52.9523 29.3543L52.9481 29.4371ZM52.7145 29.5415C52.7425 29.5068 52.7782 29.4793 52.8188 29.4611C52.8594 29.443 52.9037 29.4348 52.9481 29.4371L52.9523 29.3543C52.8949 29.3513 52.8377 29.3619 52.7852 29.3854C52.7327 29.4089 52.6865 29.4442 52.6503 29.489L52.7145 29.5415ZM52.7894 29.9801C52.7216 29.9314 52.6756 29.8576 52.6619 29.775C52.6481 29.6924 52.6676 29.6077 52.716 29.5394L52.6488 29.4911C52.5878 29.5772 52.5633 29.6844 52.5806 29.7887C52.5979 29.893 52.6556 29.9861 52.741 30.0476L52.7894 29.9801ZM52.8607 30.0371L52.7909 29.9813L52.7392 30.0464L52.8088 30.1022L52.8604 30.0371H52.8607ZM53.1319 30.1964C53.0374 30.1481 52.9458 30.094 52.8574 30.035L52.8118 30.1043C52.9028 30.1652 52.9968 30.2204 53.0943 30.2705L53.1319 30.1964ZM53.6437 30.557C53.4868 30.4192 53.3155 30.2985 53.1331 30.197L53.0929 30.2696C53.2701 30.3683 53.4364 30.4856 53.5891 30.6194L53.6437 30.557ZM53.7249 30.7808C53.7206 30.7032 53.6947 30.6279 53.6503 30.5642L53.5825 30.6122C53.6183 30.6632 53.6389 30.7232 53.6422 30.7853L53.7249 30.7808ZM53.8215 30.8537L53.7114 30.7523L53.6556 30.8135L53.7654 30.9149L53.8215 30.8537ZM53.1495 33.9236C52.9984 32.8685 53.2399 31.7947 53.8278 30.9074L53.7592 30.8612C53.1599 31.7655 52.9136 32.8602 53.0675 33.9356L53.1495 33.9236ZM52.9786 34.0103L53.12 33.9698L53.097 33.8897L52.9559 33.9302L52.9786 34.0103ZM52.8452 34.1516C52.909 34.1114 52.9624 34.0562 53.0024 33.9923L52.9323 33.9482C52.8991 34.0019 52.8542 34.0473 52.801 34.0811L52.8452 34.1516ZM52.2236 34.2578C52.4298 34.244 52.6342 34.2098 52.8338 34.1564L52.8124 34.076C52.6181 34.1282 52.4191 34.1612 52.2182 34.1747L52.2236 34.2578ZM51.9037 34.2827C52.0091 34.2683 52.1156 34.2599 52.2218 34.2578L52.22 34.1747C52.1105 34.1769 52.0009 34.1854 51.8924 34.2002L51.9037 34.2827ZM51.8181 34.3022L51.9073 34.2821L51.8891 34.2011L51.7996 34.2212L51.8181 34.3022ZM51.7987 34.3034H51.8088V34.22H51.7987V34.3034ZM51.5647 34.5017C51.5825 34.4496 51.6143 34.4035 51.6566 34.3684C51.6989 34.3333 51.7501 34.3108 51.8044 34.3031L51.793 34.2203C51.7235 34.23 51.658 34.2592 51.6038 34.3041C51.5496 34.3491 51.5089 34.4082 51.4863 34.475L51.5647 34.5017ZM51.6334 34.8068C51.595 34.7674 51.5682 34.7179 51.5561 34.6641C51.544 34.6102 51.547 34.554 51.5647 34.5017L51.4863 34.475C51.4635 34.5418 51.4597 34.6134 51.4752 34.6822C51.4906 34.7511 51.5249 34.8146 51.574 34.865L51.6334 34.8068ZM51.936 34.88C51.8837 34.8972 51.8274 34.8994 51.774 34.8864C51.7206 34.8734 51.6718 34.8458 51.6331 34.8065L51.574 34.865C51.6749 34.9673 51.825 35.0039 51.9613 34.9589L51.936 34.88ZM51.9551 34.8779L51.9485 34.8776V34.961H51.9551V34.8779ZM52.0416 34.868L51.9506 34.8782L51.9595 34.9607L52.0505 34.9505L52.0416 34.868ZM52.331 34.7606C52.2343 34.8028 52.1352 34.8392 52.0341 34.8695L52.0577 34.9493C52.1619 34.9181 52.2641 34.8806 52.3639 34.8371L52.331 34.7606ZM52.9257 34.5854C52.7222 34.6241 52.5238 34.6829 52.3322 34.76L52.363 34.8374C52.5495 34.7624 52.7431 34.7048 52.9413 34.6673L52.9257 34.5854ZM53.1501 34.661C53.0873 34.6158 53.013 34.5894 52.9359 34.5848L52.9311 34.6679C52.9929 34.6715 53.052 34.6925 53.1021 34.7288L53.1501 34.661ZM53.2707 34.6286L53.1194 34.6538L53.1328 34.7357L53.2844 34.7105L53.2707 34.6286ZM55.2351 37.0691C54.3236 36.528 53.6415 35.6698 53.3169 34.6568L53.2382 34.6823C53.5689 35.7145 54.2643 36.589 55.193 37.1405L55.2351 37.0691ZM55.19 37.2521L55.2515 37.1228L55.1769 37.0868L55.1154 37.2161L55.19 37.2521ZM55.224 37.43C55.2336 37.3568 55.2218 37.2827 55.19 37.2161L55.1154 37.2521C55.1402 37.3041 55.1494 37.3621 55.142 37.4192L55.224 37.43ZM54.9128 38.0021C55.0333 37.8251 55.1366 37.6376 55.2207 37.4414L55.1449 37.4081C55.0627 37.5998 54.9621 37.7829 54.8448 37.955L54.9128 38.0021ZM54.7337 38.27C54.7881 38.1776 54.8471 38.0888 54.9116 38.0036L54.8459 37.9532C54.7796 38.0411 54.7185 38.1327 54.6627 38.2277L54.7337 38.27ZM54.6929 38.3576L54.7355 38.2664L54.6609 38.231L54.618 38.3222L54.6929 38.3576ZM54.6994 38.672C54.6696 38.626 54.6531 38.5725 54.6516 38.5175C54.6501 38.4626 54.6638 38.4086 54.6911 38.3609L54.6195 38.3192C54.5484 38.4434 54.5523 38.597 54.6299 38.7173L54.6994 38.672ZM54.9787 38.8061C54.9244 38.8118 54.8696 38.8023 54.8203 38.7787C54.771 38.755 54.7292 38.7181 54.6994 38.672L54.6299 38.7173C54.7075 38.8376 54.8456 38.9039 54.9874 38.8889L54.9787 38.8061ZM55.2234 38.6141C55.2043 38.6658 55.1713 38.7111 55.1281 38.745C55.0849 38.7789 55.0332 38.8 54.9787 38.8061L54.9874 38.8889C55.0571 38.8811 55.1236 38.8539 55.1789 38.8105C55.2343 38.7671 55.2765 38.7091 55.301 38.6429L55.2234 38.6141ZM55.2667 38.5241L55.2246 38.6102L55.2995 38.6468L55.3413 38.5604L55.2667 38.5241ZM55.3607 38.2229C55.3347 38.3262 55.3028 38.4279 55.2652 38.5274L55.3425 38.5571C55.3813 38.4542 55.4144 38.3492 55.441 38.2433L55.3607 38.2229ZM55.4359 38.0138C55.4126 38.0819 55.3893 38.1506 55.3625 38.2175L55.4392 38.2487C55.4669 38.1791 55.4911 38.1083 55.5138 38.0405L55.4359 38.0138ZM55.6286 37.5998C55.5382 37.709 55.4869 37.8626 55.4359 38.0138L55.5138 38.0405C55.5663 37.8848 55.6137 37.748 55.6922 37.6532L55.6286 37.5998ZM55.7984 37.5146C55.7361 37.5244 55.6782 37.5532 55.6322 37.5965L55.6889 37.6568C55.7228 37.6249 55.7654 37.6037 55.8113 37.5965L55.7984 37.5146ZM55.8441 37.3973L55.7686 37.5353L55.8411 37.5755L55.9166 37.4372L55.8441 37.3973ZM58.9653 37.3859C57.9758 37.7628 56.8828 37.7601 55.8951 37.3784L55.8656 37.4558C56.8722 37.8448 57.9861 37.8476 58.9946 37.4636L58.9653 37.3859ZM59.0838 37.5347L59.0167 37.4057L58.9436 37.4441L59.0104 37.5734L59.0838 37.5347ZM59.2518 37.6331C59.204 37.5683 59.1325 37.5252 59.0531 37.5131L59.0411 37.595C59.0989 37.6039 59.1508 37.6357 59.1856 37.6829L59.2518 37.6331ZM59.4881 38.2139C59.4291 38.0152 59.3511 37.8226 59.2554 37.6388L59.182 37.6772C59.2757 37.8563 59.3512 38.0441 59.4088 38.2379L59.4881 38.2139ZM59.5851 38.5208C59.5472 38.4211 59.515 38.3192 59.4887 38.2157L59.4085 38.2361C59.4353 38.3429 59.4685 38.4479 59.5075 38.5505L59.5851 38.5208ZM59.6254 38.6036L59.5836 38.5175L59.5093 38.5538L59.5511 38.6402L59.6254 38.6036ZM59.8719 38.7983C59.8175 38.7923 59.7659 38.7712 59.7228 38.7375C59.6796 38.7037 59.6462 38.6587 59.6269 38.6072L59.5496 38.6366C59.5743 38.7025 59.6167 38.7601 59.672 38.8032C59.7273 38.8463 59.7934 38.8732 59.8629 38.8808L59.8719 38.7983ZM60.1524 38.6654C60.1224 38.7115 60.0803 38.7483 60.0308 38.7717C59.9813 38.7952 59.9263 38.8044 59.8719 38.7983L59.8629 38.8808C59.9325 38.8886 60.0028 38.8768 60.0661 38.8469C60.1294 38.8169 60.1832 38.7699 60.2216 38.711L60.1524 38.6654ZM60.1592 38.3537C60.1868 38.4013 60.2008 38.4557 60.1995 38.5108C60.1982 38.5658 60.1818 38.6195 60.1521 38.6657L60.2216 38.711C60.2597 38.6519 60.2806 38.5833 60.2822 38.5128C60.2838 38.4424 60.2659 38.3729 60.2306 38.312L60.1592 38.3537ZM60.1139 38.2598L60.1578 38.351L60.2324 38.3147L60.1885 38.2235L60.1139 38.2598ZM59.9378 37.9976C60.002 38.0825 60.0614 38.171 60.1157 38.2628L60.1867 38.2205C60.1309 38.126 60.0697 38.0347 60.0035 37.9472L59.9378 37.9976ZM59.6305 37.454C59.7169 37.6432 59.8193 37.8246 59.9366 37.9961L60.0047 37.9487C59.89 37.7811 59.7899 37.6038 59.7054 37.4189L59.6305 37.454ZM59.6675 37.211C59.6455 37.2455 59.6307 37.2841 59.6239 37.3244C59.6171 37.3648 59.6184 37.4061 59.6278 37.4459L59.7084 37.4267C59.7015 37.3978 59.7005 37.3678 59.7055 37.3385C59.7104 37.3091 59.7211 37.2811 59.737 37.256L59.6675 37.211ZM59.6072 37.1105C59.6236 37.1588 59.643 37.2062 59.6651 37.2518L59.7397 37.2155C59.7188 37.1728 59.7007 37.1289 59.6854 37.0838L59.6072 37.1105ZM61.5349 34.6406C61.2139 35.6551 60.5345 36.5163 59.6251 37.0616L59.6675 37.133C60.5943 36.5774 61.2867 35.6997 61.6139 34.6658L61.5349 34.6406ZM61.7247 34.6376L61.5814 34.6124L61.5674 34.6943L61.7103 34.7195L61.7247 34.6376ZM61.907 34.5671C61.8268 34.5648 61.7489 34.5938 61.6897 34.6481L61.7455 34.7093C61.7889 34.6697 61.846 34.6485 61.9046 34.6502L61.907 34.5671ZM62.5062 34.742C62.3138 34.6675 62.1156 34.609 61.9135 34.5677L61.898 34.6496C62.095 34.6874 62.2889 34.7495 62.4772 34.82L62.5062 34.742ZM62.8057 34.8581C62.7046 34.8262 62.6055 34.7878 62.5091 34.7432L62.4745 34.8188C62.5745 34.8653 62.6771 34.9043 62.781 34.9373L62.8057 34.8581ZM62.8484 34.8671C62.8336 34.8644 62.8189 34.8612 62.8043 34.8575L62.7825 34.9379C62.7974 34.9418 62.8159 34.9454 62.8323 34.9487L62.8484 34.8671ZM62.8899 34.8761C62.876 34.8729 62.8624 34.8699 62.8484 34.8671L62.8323 34.9487L62.8705 34.9568L62.8899 34.8761ZM62.8866 34.8749H62.8801V34.958H62.8866V34.8749ZM63.2014 34.8029C63.1628 34.8421 63.1141 34.8698 63.0608 34.8828C63.0075 34.8958 62.9516 34.8937 62.8994 34.8767L62.8741 34.9559C62.9409 34.9776 63.0123 34.9803 63.0805 34.9635C63.1487 34.9468 63.2109 34.9113 63.2602 34.8611L63.2014 34.8029ZM63.2716 34.4981C63.289 34.5505 63.2917 34.6066 63.2793 34.6604C63.267 34.7141 63.24 34.7637 63.2014 34.8029L63.2602 34.8611C63.3096 34.811 63.3441 34.748 63.36 34.6792C63.3759 34.6105 63.3724 34.5386 63.35 34.4717L63.2716 34.4981ZM63.031 34.3001C63.142 34.3151 63.2351 34.3919 63.2719 34.4984L63.35 34.4717C63.3272 34.4049 63.2863 34.3454 63.2319 34.3006C63.1775 34.2558 63.1118 34.2271 63.0421 34.2176L63.031 34.3001ZM62.929 34.2761L63.0269 34.2995L63.046 34.2182L62.9481 34.1948L62.929 34.2761ZM62.6151 34.2515C62.7213 34.2539 62.8275 34.2623 62.9332 34.2767L62.9442 34.1942C62.8356 34.1793 62.7262 34.1707 62.6166 34.1684L62.6151 34.2515ZM62.0031 34.1504C62.2024 34.2044 62.4065 34.2383 62.613 34.2515L62.6187 34.1687C62.4179 34.1557 62.2188 34.1227 62.0245 34.07L62.0031 34.1504ZM61.8324 33.9845C61.8703 34.0526 61.9264 34.1087 61.9935 34.1465L62.0338 34.0739C61.9801 34.0439 61.935 33.9986 61.9043 33.9437L61.8324 33.9845ZM61.7205 33.9635L61.8565 34.004L61.8801 33.9242L61.744 33.8837L61.7205 33.9635ZM60.9992 30.9077C61.589 31.7919 61.8354 32.863 61.6915 33.9176L61.7736 33.929C61.9201 32.8542 61.669 31.7626 61.0679 30.8615L60.9992 30.9077ZM61.1246 30.7436L61.0055 30.854L61.0616 30.9152L61.1807 30.8045L61.1246 30.7436ZM61.1837 30.5555C61.1317 30.6171 61.1058 30.6967 61.1114 30.7772L61.1935 30.7712C61.1893 30.7124 61.2086 30.6542 61.2466 30.6092L61.1837 30.5555ZM61.6939 30.1934C61.5152 30.2954 61.3448 30.4154 61.1881 30.551L61.2418 30.614C61.3949 30.482 61.5605 30.365 61.7348 30.2657L61.6939 30.1934ZM61.9699 30.0311C61.8816 30.0902 61.7899 30.1444 61.6954 30.1928L61.7333 30.2666C61.8306 30.2165 61.9249 30.1613 62.0156 30.1007L61.9699 30.0311ZM62.0404 29.9735L61.9669 30.0335L62.0189 30.098L62.0923 30.038L62.0404 29.9735ZM62.183 29.6843C62.1892 29.7403 62.1794 29.7969 62.1549 29.8476C62.1304 29.8982 62.0921 29.9409 62.0445 29.9705L62.0884 30.0413C62.2125 29.9636 62.2812 29.8214 62.2653 29.6753L62.183 29.6843ZM61.986 29.4356C62.0389 29.4542 62.0855 29.4875 62.1203 29.5315C62.1552 29.5756 62.1769 29.6284 62.183 29.6843L62.2653 29.6753C62.2574 29.6038 62.2295 29.5359 62.1848 29.4797C62.1402 29.4234 62.0803 29.381 62.0126 29.3573L61.986 29.4356ZM61.6778 29.5073C61.7172 29.4674 61.767 29.4395 61.8215 29.4268C61.876 29.4141 61.9332 29.4172 61.986 29.4356L62.0126 29.3573C61.9451 29.3337 61.8725 29.3297 61.8028 29.3459C61.7331 29.3621 61.6694 29.3978 61.619 29.4488L61.6778 29.5073ZM61.5993 29.5703L61.6739 29.5103L61.6226 29.4455L61.548 29.5055L61.5993 29.5703ZM61.3851 29.8004C61.4528 29.7188 61.5253 29.6414 61.602 29.5679L61.545 29.5079C61.4659 29.5833 61.3915 29.6631 61.3215 29.747L61.3851 29.8004ZM60.9384 30.2237C61.1002 30.0976 61.2496 29.956 61.3845 29.801L61.3221 29.7464C61.1908 29.8973 61.0455 30.035 60.8876 30.158L60.9384 30.2237ZM60.7023 30.2543C60.7784 30.2675 60.8569 30.2588 60.9285 30.2294L60.8975 30.1523C60.8402 30.1759 60.7774 30.1829 60.7164 30.1724L60.7023 30.2543ZM60.6057 30.3383L60.7334 30.2471L60.6853 30.1793L60.5576 30.2708L60.6054 30.3386L60.6057 30.3383ZM57.7864 28.9922C58.8392 29.0878 59.8218 29.5646 60.5516 30.3335L60.6113 30.2759C59.8677 29.4925 58.8666 29.0069 57.7938 28.9094L57.7864 28.9922ZM57.7434 28.8356C57.7458 28.8698 57.7488 28.9166 57.7488 28.9508H57.8314C57.8314 28.9133 57.8282 28.8635 57.8258 28.8299L57.7434 28.8356ZM57.7413 28.802C57.7413 28.8095 57.7425 28.8218 57.7434 28.8356L57.8258 28.8299L57.824 28.7984L57.7413 28.802ZM57.6318 28.6397C57.6467 28.7189 57.6933 28.7888 57.7589 28.8344L57.8061 28.766C57.7578 28.7327 57.7245 28.6816 57.7133 28.6238L57.6318 28.6397ZM57.67 28.0133C57.6372 28.2185 57.6243 28.4258 57.6312 28.6331L57.7139 28.6301C57.707 28.4282 57.7198 28.226 57.7518 28.0265L57.67 28.0133ZM57.7162 27.695C57.7069 27.8013 57.6916 27.907 57.6703 28.0115L57.7515 28.028C57.7735 27.92 57.7888 27.812 57.7986 27.7025L57.7162 27.695ZM57.7162 27.5975V27.6989H57.7986V27.5975H57.7162ZM57.4241 27.2636C57.5957 27.2756 57.7249 27.4232 57.716 27.5951L57.7986 27.5996C57.8041 27.4951 57.7685 27.3927 57.6995 27.3143C57.6305 27.236 57.5336 27.188 57.4298 27.1808L57.4241 27.2636ZM57.4023 27.2561L57.4068 27.2585L57.4471 27.1859L57.4426 27.1832L57.4023 27.2561ZM56.9428 31.6127L57.0434 29.8415L56.961 29.8367L56.8601 31.6079L56.9428 31.6127ZM56.8939 31.652H56.9013V31.5689H56.8936L56.8939 31.652ZM56.7459 31.9025C56.8557 31.8437 56.9294 31.7381 56.935 31.6124L56.8524 31.6085C56.8496 31.655 56.8347 31.6999 56.8091 31.7386C56.7835 31.7774 56.7482 31.8087 56.7068 31.8293L56.7456 31.9031L56.7459 31.9025ZM56.3991 31.8722C56.4982 31.9448 56.6319 31.9634 56.7459 31.9025L56.7068 31.8293C56.6657 31.8503 56.6199 31.8592 56.5741 31.855C56.5283 31.8507 56.4843 31.8335 56.4478 31.8053L56.3991 31.8722ZM54.9549 30.8432L56.3997 31.8725L56.4475 31.8047L55.0026 30.7754L54.9549 30.8432ZM56.6354 29.8562C55.9989 30.0001 55.4149 30.3199 54.9495 30.7796L55.0077 30.839C55.4621 30.3903 56.0322 30.078 56.6536 29.9375L56.6357 29.8565L56.6354 29.8562ZM56.9962 29.798C56.8754 29.8112 56.7551 29.8307 56.6357 29.8565L56.6536 29.9375C56.77 29.9126 56.8876 29.8934 57.0055 29.8805L56.9962 29.798ZM57.0022 29.7977H57.0013V29.8808H57.0022V29.7977ZM57.838 29.8802C58.588 29.9741 59.2866 30.3128 59.8265 30.8444L59.8844 30.785C59.3315 30.2408 58.6158 29.894 57.8478 29.798L57.838 29.8802ZM57.9842 31.6061L57.884 29.837L57.8016 29.8418L57.9013 31.6109L57.9842 31.6061ZM58.1301 31.8362C58.087 31.8157 58.0504 31.7833 58.0246 31.7429C57.9989 31.7025 57.9848 31.656 57.9842 31.6079L57.9016 31.6088C57.9033 31.7381 57.9779 31.856 58.0946 31.9118L58.1301 31.8362ZM58.3984 31.805C58.3611 31.8351 58.3161 31.854 58.2686 31.8596C58.2211 31.8651 58.173 31.8572 58.1298 31.8365L58.0946 31.9118C58.1517 31.9391 58.2153 31.9493 58.2781 31.9419C58.3409 31.9345 58.4004 31.9096 58.4497 31.8698L58.3984 31.805ZM59.8316 30.7808L58.3999 31.8038L58.4479 31.8713L59.8793 30.8483L59.8316 30.7808ZM54.0045 33.6713C53.9215 32.9127 54.0921 32.1479 54.4894 31.4975L54.4189 31.454C54.0122 32.1201 53.8375 32.9032 53.9224 33.68L54.0045 33.6713ZM55.6477 33.1454L53.9519 33.6359L53.9749 33.7157L55.6704 33.2255L55.6477 33.1454ZM55.6179 33.1802V33.1853H55.7003V33.1802H55.6179ZM55.8292 32.9504C55.8188 32.9956 55.7965 33.0371 55.7646 33.0705C55.7327 33.1039 55.6925 33.1281 55.648 33.1403L55.6701 33.2204C55.7889 33.1874 55.8817 33.0911 55.9094 32.969L55.8292 32.9504ZM55.7486 32.6999C55.819 32.762 55.8501 32.8583 55.8292 32.9504L55.9094 32.969C55.9231 32.9092 55.9206 32.8467 55.9017 32.7883C55.8829 32.7299 55.8486 32.6777 55.8026 32.6372L55.748 32.7002L55.7486 32.6999ZM55.7343 32.6609V32.6687H55.8169V32.6612L55.7343 32.6609ZM54.4267 31.5065L55.748 32.6921L55.8032 32.63L54.4819 31.4447L54.4267 31.5065ZM54.4192 31.4534V31.454L54.4894 31.4975L54.49 31.4969L54.4192 31.4534ZM54.4834 31.505L54.484 31.5044L54.4255 31.4456L54.4252 31.4462L54.4834 31.505ZM60.3463 31.4972C60.7431 32.146 60.9185 32.9073 60.8459 33.6653L60.9279 33.6734C61.0024 32.8972 60.823 32.1178 60.4168 31.4534L60.3463 31.4972ZM60.4203 31.4609L60.4186 31.4567L60.3446 31.4939L60.3466 31.4978L60.4203 31.4609ZM59.0993 32.69L60.4108 31.5101L60.3556 31.448L59.0444 32.6279L59.0993 32.69ZM59.0185 32.9411C59.0083 32.8959 59.0104 32.8488 59.0245 32.8046C59.0387 32.7605 59.0644 32.721 59.099 32.6903L59.0444 32.6279C58.9987 32.6685 58.9647 32.7206 58.9459 32.7788C58.9271 32.8371 58.9242 32.8994 58.9376 32.9591L59.0185 32.9411ZM59.1993 33.1304C59.1548 33.1185 59.1145 33.0945 59.0826 33.0612C59.0507 33.0278 59.0286 32.9863 59.0185 32.9411L58.9376 32.9591C58.9645 33.0812 59.057 33.1781 59.1775 33.2108L59.1993 33.1304ZM59.2297 33.1772V33.1706H59.1471V33.1772H59.2297ZM60.8978 33.6293L59.1999 33.1373L59.1769 33.2171L60.8751 33.7091L60.8978 33.6293ZM57.6921 32.7116H57.1514V32.7944H57.6921V32.711V32.7116ZM58.0549 33.149L57.7246 32.7269L57.6596 32.7785L57.9899 33.2003L58.0549 33.149ZM57.9427 33.7112L58.0627 33.1838L57.9821 33.1652L57.8622 33.6926L57.9427 33.7112ZM57.4346 33.9746L57.9204 33.7394L57.8845 33.6644L57.3988 33.8993L57.4346 33.9746ZM56.9124 33.7394L57.3988 33.9743L57.4346 33.8993L56.9479 33.6644L56.9124 33.7394ZM56.7751 33.1835L56.8897 33.7109L56.9703 33.6929L56.856 33.1658L56.7751 33.1835ZM57.1192 32.7269L56.7829 33.149L56.8476 33.2009L57.1833 32.7791L57.1189 32.7272L57.1192 32.7269ZM58.8878 34.2329C58.907 34.2308 58.9264 34.2308 58.9457 34.2329L58.9573 34.151C58.9312 34.1481 58.9049 34.1481 58.8788 34.151L58.8878 34.2329ZM58.9212 34.2101L58.9233 34.2026L58.8433 34.181L58.8412 34.1885L58.9212 34.2101ZM58.681 34.3622C58.7026 34.3272 58.7324 34.2978 58.7677 34.2767C58.803 34.2556 58.8429 34.2434 58.8839 34.241L58.8788 34.1579C58.769 34.1642 58.669 34.2239 58.6109 34.3181L58.681 34.3622ZM58.6628 34.5983C58.6468 34.5604 58.6401 34.5192 58.6433 34.4781C58.6464 34.437 58.6594 34.3973 58.681 34.3622L58.6109 34.3181C58.5821 34.3645 58.5649 34.4171 58.5607 34.4716C58.5564 34.526 58.5652 34.5807 58.5864 34.631L58.6628 34.5983ZM59.3386 36.2438L58.6628 34.5989L58.5864 34.6304L59.2623 36.2756L59.3386 36.2438ZM60.6609 34.4747C60.412 35.1959 59.9202 35.8121 59.2781 36.2246L59.3228 36.2951C59.9799 35.8727 60.4836 35.2412 60.739 34.502L60.6609 34.4747ZM58.9445 34.2329L60.6931 34.5293L60.7068 34.4474L58.9582 34.151L58.9445 34.2329ZM56.2254 34.3127C56.1952 34.266 56.1541 34.2275 56.1056 34.2005C56.0571 34.1735 56.0028 34.1589 55.9473 34.1579L55.9458 34.241C55.9877 34.2418 56.0288 34.2528 56.0654 34.2732C56.102 34.2936 56.1331 34.3227 56.1559 34.358L56.2254 34.3127ZM56.2523 34.6307C56.2742 34.5796 56.2832 34.5238 56.2785 34.4684C56.2739 34.4129 56.2556 34.3594 56.2254 34.3127L56.1559 34.358C56.1788 34.3932 56.1926 34.4333 56.1962 34.4751C56.1998 34.517 56.193 34.5591 56.1765 34.5977L56.2523 34.6307ZM56.2559 34.6208V34.6142H56.1729V34.6208H56.2559ZM55.5809 36.2684L56.2526 34.6364L56.1762 34.6049L55.5045 36.2366L55.5809 36.2684ZM54.1128 34.5134C54.375 35.2445 54.8697 35.8681 55.5203 36.2876L55.5651 36.2174C54.9298 35.808 54.4465 35.1992 54.1904 34.4855L54.1128 34.5134ZM55.8781 34.163L54.1444 34.4585L54.1584 34.5404L55.8921 34.2449L55.8781 34.163ZM55.9476 34.1627C55.9254 34.1604 55.903 34.1607 55.8808 34.163L55.8894 34.2452C55.906 34.2435 55.9227 34.2435 55.9393 34.2452L55.9476 34.1627ZM55.9121 34.1762L55.9091 34.181L55.9778 34.2269L55.9808 34.2224L55.9121 34.1762ZM57.4125 34.9508C57.4599 34.9494 57.5068 34.9612 57.5479 34.9849C57.5891 35.0086 57.6229 35.0434 57.6455 35.0852L57.7183 35.0456C57.6884 34.9902 57.6436 34.9442 57.5891 34.9127C57.5347 34.8813 57.4726 34.8658 57.4098 34.8677L57.4125 34.9508ZM57.4531 34.901L57.4486 34.8914L57.374 34.9271L57.3782 34.9367L57.4531 34.901ZM57.1994 35.0891C57.2215 35.0507 57.2531 35.0186 57.2912 34.9961C57.3293 34.9735 57.3725 34.9613 57.4167 34.9604L57.4146 34.8773C57.2964 34.8803 57.1869 34.9433 57.1275 35.0477L57.1994 35.0891ZM56.3421 36.6389L57.1997 35.0885L57.1278 35.0483L56.2699 36.5984L56.3421 36.6389ZM58.1922 36.6764C57.5711 36.8192 56.9227 36.7856 56.3194 36.5792L56.2926 36.6578C56.9104 36.8693 57.5745 36.9037 58.2107 36.7574L58.1922 36.6764ZM58.5312 36.5756L58.1898 36.677L58.2131 36.7568L58.5548 36.6554L58.5312 36.5756ZM57.6524 35.0855L58.5067 36.6356L58.5792 36.5954L57.7246 35.0453L57.6524 35.0855ZM57.6822 35.1071H57.6885V35.0237H57.6819L57.6822 35.1071Z" fill="white"/>
</svg>
